# xmcd
#
# Track frame offsets: 
#        150
#        12412
#        34287
#        47652
#        69827
#        105497
#        114075
#        137967
#        164240
#        194155
#        225215
#
# Disc length: 3210 seconds
#
# Revision: 6
# Processed by: cddbd v1.5.2PL0 Copyright (c) Steve Scherf et al.
# Submitted via: ExactAudioCopy v0.99pb3
#
DISCID=920c880b
DTITLE=Chick Corea Elektric Band - Eye Of The Beholder
DYEAR=1988
DGENRE=Fusion
TTITLE0=Home Universe
TTITLE1=Eternal Child
TTITLE2=Forgotten Past
TTITLE3=Passage
TTITLE4=Beauty
TTITLE5=Cascade - Part I
TTITLE6=Cascade - Part II
TTITLE7=Trance Dance
TTITLE8=Eye Of The Beholder
TTITLE9=Ezinda
TTITLE10=Amnesia
EXTD=YEAR: 1988
EXTT0=
EXTT1=
EXTT2=
EXTT3=
EXTT4=
EXTT5=
EXTT6=
EXTT7=
EXTT8=
EXTT9=
EXTT10=
PLAYORDER=
